<mxfile host="Electron" agent="Mozilla/5.0 (Macintosh; Intel Mac OS X 10_15_7) AppleWebKit/537.36 (KHTML, like Gecko) draw.io/26.0.9 Chrome/128.0.6613.186 Electron/32.2.5 Safari/537.36" version="26.0.9">
  <diagram name="Page-1" id="DLmarki88JReGQ2s3c1B">
    <mxGraphModel dx="984" dy="746" grid="1" gridSize="10" guides="1" tooltips="1" connect="1" arrows="1" fold="1" page="1" pageScale="1" pageWidth="850" pageHeight="1100" math="0" shadow="0">
      <root>
        <mxCell id="0" />
        <mxCell id="1" parent="0" />
        <mxCell id="a-mVC0DCv3H6YnYu_qxZ-1" value="" style="rounded=0;whiteSpace=wrap;html=1;fillColor=#d5e8d4;strokeColor=#82b366;" vertex="1" parent="1">
          <mxGeometry x="550" y="135" width="200" height="280" as="geometry" />
        </mxCell>
        <mxCell id="a-mVC0DCv3H6YnYu_qxZ-2" value="" style="rounded=0;whiteSpace=wrap;html=1;fillColor=#dae8fc;strokeColor=#6c8ebf;" vertex="1" parent="1">
          <mxGeometry x="40" y="200" width="360" height="160" as="geometry" />
        </mxCell>
        <mxCell id="a-mVC0DCv3H6YnYu_qxZ-12" style="edgeStyle=orthogonalEdgeStyle;rounded=0;orthogonalLoop=1;jettySize=auto;html=1;exitX=1;exitY=0.5;exitDx=0;exitDy=0;entryX=0;entryY=0.5;entryDx=0;entryDy=0;" edge="1" parent="1" source="a-mVC0DCv3H6YnYu_qxZ-6" target="a-mVC0DCv3H6YnYu_qxZ-8">
          <mxGeometry relative="1" as="geometry" />
        </mxCell>
        <mxCell id="a-mVC0DCv3H6YnYu_qxZ-25" value="SPI" style="edgeLabel;html=1;align=center;verticalAlign=middle;resizable=0;points=[];" vertex="1" connectable="0" parent="a-mVC0DCv3H6YnYu_qxZ-12">
          <mxGeometry x="0.0716" y="-1" relative="1" as="geometry">
            <mxPoint as="offset" />
          </mxGeometry>
        </mxCell>
        <mxCell id="a-mVC0DCv3H6YnYu_qxZ-13" style="edgeStyle=orthogonalEdgeStyle;rounded=0;orthogonalLoop=1;jettySize=auto;html=1;exitX=0.5;exitY=1;exitDx=0;exitDy=0;" edge="1" parent="1" source="a-mVC0DCv3H6YnYu_qxZ-8" target="a-mVC0DCv3H6YnYu_qxZ-9">
          <mxGeometry relative="1" as="geometry" />
        </mxCell>
        <mxCell id="a-mVC0DCv3H6YnYu_qxZ-8" value="Rx Data" style="rounded=1;whiteSpace=wrap;html=1;" vertex="1" parent="1">
          <mxGeometry x="569.9989473684211" y="150" width="88.42105263157896" height="50" as="geometry" />
        </mxCell>
        <mxCell id="a-mVC0DCv3H6YnYu_qxZ-9" value="Write Data" style="rounded=1;whiteSpace=wrap;html=1;" vertex="1" parent="1">
          <mxGeometry x="569.9989473684211" y="230" width="88.42105263157896" height="50" as="geometry" />
        </mxCell>
        <mxCell id="a-mVC0DCv3H6YnYu_qxZ-16" value="cmd" style="rounded=0;whiteSpace=wrap;html=1;fillColor=#fff2cc;strokeColor=#d6b656;" vertex="1" parent="1">
          <mxGeometry x="40" y="320" width="80" height="40" as="geometry" />
        </mxCell>
        <mxCell id="a-mVC0DCv3H6YnYu_qxZ-21" style="edgeStyle=orthogonalEdgeStyle;rounded=0;orthogonalLoop=1;jettySize=auto;html=1;exitX=1;exitY=0.5;exitDx=0;exitDy=0;entryX=0.25;entryY=1;entryDx=0;entryDy=0;" edge="1" parent="1" source="a-mVC0DCv3H6YnYu_qxZ-17" target="a-mVC0DCv3H6YnYu_qxZ-16">
          <mxGeometry relative="1" as="geometry" />
        </mxCell>
        <mxCell id="a-mVC0DCv3H6YnYu_qxZ-23" value="Send Command" style="edgeLabel;html=1;align=center;verticalAlign=middle;resizable=0;points=[];" vertex="1" connectable="0" parent="a-mVC0DCv3H6YnYu_qxZ-21">
          <mxGeometry x="-0.0928" y="-3" relative="1" as="geometry">
            <mxPoint as="offset" />
          </mxGeometry>
        </mxCell>
        <mxCell id="a-mVC0DCv3H6YnYu_qxZ-27" value="I2C" style="edgeLabel;html=1;align=center;verticalAlign=middle;resizable=0;points=[];" vertex="1" connectable="0" parent="a-mVC0DCv3H6YnYu_qxZ-21">
          <mxGeometry x="0.2286" y="-3" relative="1" as="geometry">
            <mxPoint as="offset" />
          </mxGeometry>
        </mxCell>
        <mxCell id="a-mVC0DCv3H6YnYu_qxZ-17" value="cmd" style="rounded=0;whiteSpace=wrap;html=1;rotation=90;fillColor=#fff2cc;strokeColor=#d6b656;" vertex="1" parent="1">
          <mxGeometry x="530" y="355" width="80" height="40" as="geometry" />
        </mxCell>
        <mxCell id="a-mVC0DCv3H6YnYu_qxZ-22" style="edgeStyle=orthogonalEdgeStyle;rounded=0;orthogonalLoop=1;jettySize=auto;html=1;exitX=0.75;exitY=1;exitDx=0;exitDy=0;entryX=0.574;entryY=0.914;entryDx=0;entryDy=0;entryPerimeter=0;" edge="1" parent="1" source="a-mVC0DCv3H6YnYu_qxZ-16" target="a-mVC0DCv3H6YnYu_qxZ-17">
          <mxGeometry relative="1" as="geometry" />
        </mxCell>
        <mxCell id="a-mVC0DCv3H6YnYu_qxZ-24" value="Acknowledge Command" style="edgeLabel;html=1;align=center;verticalAlign=middle;resizable=0;points=[];" vertex="1" connectable="0" parent="a-mVC0DCv3H6YnYu_qxZ-22">
          <mxGeometry x="-0.0631" y="-1" relative="1" as="geometry">
            <mxPoint as="offset" />
          </mxGeometry>
        </mxCell>
        <mxCell id="a-mVC0DCv3H6YnYu_qxZ-26" value="I2C" style="edgeLabel;html=1;align=center;verticalAlign=middle;resizable=0;points=[];" vertex="1" connectable="0" parent="a-mVC0DCv3H6YnYu_qxZ-22">
          <mxGeometry x="-0.4055" y="-1" relative="1" as="geometry">
            <mxPoint as="offset" />
          </mxGeometry>
        </mxCell>
        <mxCell id="a-mVC0DCv3H6YnYu_qxZ-28" value="" style="group" vertex="1" connectable="0" parent="1">
          <mxGeometry x="50" y="250" width="338.42" height="50" as="geometry" />
        </mxCell>
        <mxCell id="a-mVC0DCv3H6YnYu_qxZ-10" style="edgeStyle=orthogonalEdgeStyle;rounded=0;orthogonalLoop=1;jettySize=auto;html=1;exitX=1;exitY=0.5;exitDx=0;exitDy=0;entryX=0;entryY=0.5;entryDx=0;entryDy=0;" edge="1" parent="a-mVC0DCv3H6YnYu_qxZ-28" source="a-mVC0DCv3H6YnYu_qxZ-3" target="a-mVC0DCv3H6YnYu_qxZ-4">
          <mxGeometry relative="1" as="geometry" />
        </mxCell>
        <mxCell id="a-mVC0DCv3H6YnYu_qxZ-3" value="Collect Data" style="rounded=1;whiteSpace=wrap;html=1;" vertex="1" parent="a-mVC0DCv3H6YnYu_qxZ-28">
          <mxGeometry width="88.42105263157896" height="50" as="geometry" />
        </mxCell>
        <mxCell id="a-mVC0DCv3H6YnYu_qxZ-11" style="edgeStyle=orthogonalEdgeStyle;rounded=0;orthogonalLoop=1;jettySize=auto;html=1;exitX=1;exitY=0.5;exitDx=0;exitDy=0;entryX=0;entryY=0.5;entryDx=0;entryDy=0;" edge="1" parent="a-mVC0DCv3H6YnYu_qxZ-28" source="a-mVC0DCv3H6YnYu_qxZ-4" target="a-mVC0DCv3H6YnYu_qxZ-6">
          <mxGeometry relative="1" as="geometry" />
        </mxCell>
        <mxCell id="a-mVC0DCv3H6YnYu_qxZ-4" value="Buffer Data" style="rounded=1;whiteSpace=wrap;html=1;" vertex="1" parent="a-mVC0DCv3H6YnYu_qxZ-28">
          <mxGeometry x="125.78947368421052" width="88.42105263157896" height="50" as="geometry" />
        </mxCell>
        <mxCell id="a-mVC0DCv3H6YnYu_qxZ-6" value="Tx Data" style="rounded=1;whiteSpace=wrap;html=1;" vertex="1" parent="a-mVC0DCv3H6YnYu_qxZ-28">
          <mxGeometry x="249.99894736842106" width="88.42105263157896" height="50" as="geometry" />
        </mxCell>
        <mxCell id="a-mVC0DCv3H6YnYu_qxZ-29" value="analog" style="rounded=0;whiteSpace=wrap;html=1;fillColor=#e1d5e7;strokeColor=#9673a6;" vertex="1" parent="1">
          <mxGeometry x="40" y="200" width="80" height="40" as="geometry" />
        </mxCell>
        <mxCell id="a-mVC0DCv3H6YnYu_qxZ-33" value="" style="edgeStyle=orthogonalEdgeStyle;rounded=0;orthogonalLoop=1;jettySize=auto;html=1;" edge="1" parent="1" source="a-mVC0DCv3H6YnYu_qxZ-32" target="a-mVC0DCv3H6YnYu_qxZ-29">
          <mxGeometry relative="1" as="geometry" />
        </mxCell>
        <mxCell id="a-mVC0DCv3H6YnYu_qxZ-32" value="Sensor" style="triangle;whiteSpace=wrap;html=1;rotation=90;fillColor=#e1d5e7;strokeColor=#9673a6;" vertex="1" parent="1">
          <mxGeometry x="50" y="30" width="60" height="80" as="geometry" />
        </mxCell>
      </root>
    </mxGraphModel>
  </diagram>
</mxfile>
